<svg xmlns="http://www.w3.org/2000/svg" width="520" height="520" viewBox="0 0 520 520"><g opacity="0.14">
  <g fill="none" stroke="#9b4dd6" stroke-width="2" stroke-linecap="round" stroke-linejoin="round">
    
    <path d="M20 40 H120 L170 90 V180"></path>
    <path d="M20 70 H100 L140 110 H230"></path>
    <path d="M60 20 V70 L110 120 V170"></path>
    <path d="M300 20 V80 L260 120 V190"></path>
    <path d="M340 20 V60 L390 110 H470"></path>
    <path d="M500 60 H430 L380 110 V170"></path>
    <path d="M500 140 H440 L400 180 V240"></path>
    <path d="M20 240 H90 L130 280 H210"></path>
    <path d="M20 300 H70 L120 350 V430"></path>
    <path d="M20 360 H60 L100 400 H160"></path>
    <path d="M200 500 V440 L250 390 V330"></path>
    <path d="M260 500 V450 L310 400 H380"></path>
    <path d="M320 500 V460 L360 420 V370"></path>
    <path d="M500 320 H450 L410 360 V420"></path>
    <path d="M500 380 H460 L420 420 H360"></path>
    <path d="M500 460 H440 L400 500"></path>
    <path d="M140 500 V460 L100 420 V380"></path>
    <path d="M470 20 V50 L430 90 H370"></path>
    <path d="M180 20 V60 L220 100 V150"></path>
    <path d="M230 260 H300"></path>
    <path d="M230 290 H280 L320 250 V210"></path>
    <path d="M330 290 H400 L440 250 V210"></path>
  </g>
  
  <g fill="none" stroke="#8a2bd4" stroke-width="7" stroke-linecap="round" stroke-linejoin="round">
    <path d="M40 130 H110 L180 200 V260"></path>
    <path d="M480 90 L410 160 H330"></path>
    <path d="M60 470 L130 400 H200"></path>
    <path d="M460 470 L390 400 V340"></path>
  </g>
  
  <g fill="none" stroke="#9b4dd6" stroke-width="2">
    <circle cx="170" cy="186" r="5"></circle>
    <circle cx="230" cy="110" r="5"></circle>
    <circle cx="110" cy="176" r="5"></circle>
    <circle cx="260" cy="196" r="5"></circle>
    <circle cx="470" cy="110" r="5"></circle>
    <circle cx="380" cy="176" r="5"></circle>
    <circle cx="400" cy="246" r="5"></circle>
    <circle cx="210" cy="280" r="5"></circle>
    <circle cx="120" cy="436" r="5"></circle>
    <circle cx="160" cy="400" r="5"></circle>
    <circle cx="250" cy="324" r="5"></circle>
    <circle cx="380" cy="400" r="5"></circle>
    <circle cx="360" cy="364" r="5"></circle>
    <circle cx="410" cy="426" r="5"></circle>
    <circle cx="100" cy="374" r="5"></circle>
    <circle cx="370" cy="90" r="5"></circle>
    <circle cx="220" cy="156" r="5"></circle>
    <circle cx="300" cy="260" r="5"></circle>
    <circle cx="320" cy="204" r="5"></circle>
    <circle cx="440" cy="204" r="5"></circle>
  </g>
  
  <g fill="#9b4dd6">
    <circle cx="20" cy="40" r="3"></circle>
    <circle cx="20" cy="70" r="3"></circle>
    <circle cx="60" cy="20" r="3"></circle>
    <circle cx="300" cy="20" r="3"></circle>
    <circle cx="340" cy="20" r="3"></circle>
    <circle cx="180" cy="20" r="3"></circle>
    <circle cx="20" cy="240" r="3"></circle>
    <circle cx="20" cy="300" r="3"></circle>
    <circle cx="20" cy="360" r="3"></circle>
    <circle cx="200" cy="500" r="3"></circle>
    <circle cx="260" cy="500" r="3"></circle>
    <circle cx="320" cy="500" r="3"></circle>
    <circle cx="140" cy="500" r="3"></circle>
    <circle cx="180" cy="260" r="4"></circle>
    <circle cx="330" cy="160" r="4"></circle>
    <circle cx="200" cy="400" r="4"></circle>
    <circle cx="390" cy="340" r="4"></circle>
    <circle cx="40" cy="130" r="4"></circle>
    <circle cx="480" cy="90" r="4"></circle>
    <circle cx="60" cy="470" r="4"></circle>
    <circle cx="460" cy="470" r="4"></circle>
  </g>
  
  <g fill="none" stroke="#9b4dd6" stroke-width="2">
    <circle cx="440" cy="300" r="12"></circle>
    <circle cx="440" cy="300" r="5" fill="#9b4dd6" stroke="none"></circle>
    <circle cx="80" cy="210" r="12"></circle>
    <circle cx="80" cy="210" r="5" fill="#9b4dd6" stroke="none"></circle>
  </g>
  
  <g>
    <rect x="250" y="220" width="56" height="56" fill="none" stroke="#9b4dd6" stroke-width="2"></rect>
    <g stroke="#9b4dd6" stroke-width="2">
      <line x1="258" y1="220" x2="258" y2="208"></line>
      <line x1="270" y1="220" x2="270" y2="208"></line>
      <line x1="282" y1="220" x2="282" y2="208"></line>
      <line x1="294" y1="220" x2="294" y2="208"></line>
      <line x1="258" y1="276" x2="258" y2="288"></line>
      <line x1="270" y1="276" x2="270" y2="288"></line>
      <line x1="282" y1="276" x2="282" y2="288"></line>
      <line x1="294" y1="276" x2="294" y2="288"></line>
    </g>
  </g>
  
  <g fill="#8a2bd4">
    <rect x="150" y="308" width="8" height="14"></rect>
    <rect x="162" y="308" width="8" height="14"></rect>
    <rect x="174" y="308" width="8" height="14"></rect>
    <rect x="186" y="308" width="8" height="14"></rect>
  </g>
</g></svg>